<svg width="232" height="52" viewBox="0 0 232 52" fill="none" xmlns="http://www.w3.org/2000/svg">
<path d="M39.352 51.693L13.585 26.997L10.939 29.454L10.183 51H2.245L0.544 1.86H11.884L11.128 23.784L27.193 1.23L38.596 4.254L21.649 19.626L40.234 51.756L39.352 51.693ZM51.2836 51L37.5496 17.736L48.3226 15.153L54.8116 40.479L70.3726 15.279H71.2546L59.9146 51.819L51.2836 51ZM108.06 51.819C101.592 51.819 96.1954 51.525 91.8694 50.937C87.5434 50.349 84.1204 49.383 81.6004 48.039C79.0804 46.695 77.2744 44.931 76.1824 42.747C75.0904 40.563 74.5444 37.896 74.5444 34.746C74.5444 30.672 75.3004 27.165 76.8124 24.225C78.3244 21.285 80.2984 19.038 82.7344 17.484C85.2124 15.888 87.8164 15.09 90.5464 15.09C92.7304 15.09 94.9354 15.426 97.1614 16.098C99.3874 16.77 101.466 17.862 103.398 19.374C105.33 20.886 106.905 22.881 108.123 25.359C109.341 27.795 110.034 30.798 110.202 34.368L83.4274 37.392C83.8054 39.702 84.8554 41.676 86.5774 43.314C88.3414 44.91 90.9874 46.317 94.5154 47.535C98.0434 48.753 102.642 49.929 108.312 51.063L108.06 51.819ZM99.6814 29.202C99.4714 27.564 98.9884 26.01 98.2324 24.54C97.4764 23.07 96.5104 21.894 95.3344 21.012C94.1584 20.088 92.8564 19.626 91.4284 19.626C89.7484 19.626 88.2994 20.025 87.0814 20.823C85.8634 21.621 84.9184 23.154 84.2464 25.422C83.5744 27.648 83.2384 30.924 83.2384 35.25C83.2384 35.46 83.2384 35.67 83.2384 35.88C83.2384 36.048 83.2594 36.237 83.3014 36.447L99.6814 29.202ZM140.382 27.753C139.29 26.661 137.904 25.569 136.224 24.477C134.544 23.385 132.822 22.44 131.058 21.642C129.336 20.802 127.824 20.277 126.522 20.067C126.228 19.983 125.934 19.941 125.64 19.941C125.346 19.941 125.052 19.941 124.758 19.941C123.456 19.941 122.385 20.172 121.545 20.634C120.705 21.096 120.285 21.684 120.285 22.398C120.285 23.07 120.705 23.742 121.545 24.414C122.385 25.044 123.645 25.779 125.325 26.619C127.047 27.459 128.937 28.404 130.995 29.454C133.053 30.462 135.09 31.575 137.106 32.793C139.122 34.011 140.886 35.292 142.398 36.636C143.91 37.98 144.918 39.408 145.422 40.92C145.8 41.97 145.989 42.957 145.989 43.881C145.989 46.317 144.75 48.249 142.272 49.677C139.794 51.063 136.119 51.756 131.247 51.756C127.425 51.756 123.876 50.706 120.6 48.606C117.324 46.506 114.615 43.797 112.473 40.479L112.977 39.849C115.581 41.865 118.353 43.461 121.293 44.637C124.233 45.771 127.11 46.338 129.924 46.338C131.814 46.338 133.284 46.086 134.334 45.582C135.426 45.078 135.972 44.448 135.972 43.692C135.972 43.524 135.93 43.314 135.846 43.062C135.426 41.886 134.418 40.752 132.822 39.66C131.226 38.526 129.336 37.35 127.152 36.132C125.01 34.872 122.805 33.486 120.537 31.974C118.311 30.42 116.316 28.656 114.552 26.682C113.586 25.506 113.103 24.309 113.103 23.091C113.103 21.747 113.586 20.466 114.552 19.248C115.518 18.03 116.883 17.043 118.647 16.287C120.411 15.489 122.469 15.09 124.821 15.09C127.677 15.09 130.386 15.321 132.948 15.783C135.51 16.245 137.799 16.854 139.815 17.61C141.873 18.324 143.49 19.122 144.666 20.004L140.382 27.753ZM172.585 44.385C170.443 46.947 168.448 48.837 166.6 50.055C164.794 51.231 163.156 51.819 161.686 51.819C159.838 51.819 158.368 50.853 157.276 48.921C156.184 46.947 155.575 44.112 155.449 40.416L154.882 23.154H148.141V22.461L164.017 4.947H164.836L164.269 17.043L171.388 14.649V23.154H163.954L163.198 39.03C163.198 39.324 163.177 39.618 163.135 39.912C163.135 40.164 163.135 40.437 163.135 40.731C163.135 42.495 163.345 43.797 163.765 44.637C164.185 45.435 164.92 45.834 165.97 45.834C167.356 45.834 169.456 45.141 172.27 43.755L172.585 44.385ZM177.681 0.977998L192.99 3.624L182.721 13.956L177.681 0.977998ZM180.39 51L178.752 15.909H189.84L188.202 51H180.39ZM231.255 51.819L212.292 36.258L208.701 40.164L208.323 51H200.574L198.936 1.86H209.961L208.953 32.667L219.096 15.09L230.058 16.98L218.466 29.58L231.885 51.819H231.255Z" fill="white"/>
</svg>
